<?xml version="1.0" encoding="UTF-8" standalone="no"?><!DOCTYPE svg PUBLIC "-//W3C//DTD SVG 1.1//EN" "http://www.w3.org/Graphics/SVG/1.1/DTD/svg11.dtd"><svg width="100%" height="100%" viewBox="0 0 2138 605" version="1.1" xmlns="http://www.w3.org/2000/svg" xmlns:xlink="http://www.w3.org/1999/xlink" xml:space="preserve" xmlns:serif="http://www.serif.com/" style="fill-rule:evenodd;clip-rule:evenodd;stroke-linejoin:round;stroke-miterlimit:2;"><g id="Layer-1" serif:id="Layer 1"><path d="M966.243,253.048l94.279,-94.279l-158.362,-158.375l-0.013,0.013l-0.016,-0.013l-158.363,0l0,133.329l103.15,0l119.325,119.325Z" style="fill:#fff;fill-rule:nonzero;"/><path d="M1255.14,353.384l-94.279,94.279l94.862,94.863l63.513,63.516l158.362,0l0,-133.329l-103.133,0l-119.325,-119.329Z" style="fill:#fff;fill-rule:nonzero;"/><path d="M-1.164,606.049l157.442,0l-0,-237.767l172.7,0l-0,-133.341l-172.7,-0l-0,-101.213l190.375,0l-0,-133.341l-347.817,-0l0,605.662Z" style="fill:#fff;fill-rule:nonzero;"/><path d="M1826.58,461.16c-87.155,-0 -158.688,-70.779 -158.688,-167.629c0,-77.475 71.533,-148.259 158.688,-148.259c87.17,0 158.687,70.784 158.687,148.259c0,96.85 -71.517,167.629 -158.687,167.629m-0,-457.433c-115.975,-0 -225.425,61.345 -278.03,158.716c-7.25,13.409 -13.42,27.517 -18.375,42.229c-9.225,27.375 -14.262,56.888 -14.262,88.121c-0,181.775 130.379,309.93 310.667,309.93c180.295,-0 310.679,-128.155 310.679,-309.93c-0,-169.871 -149.013,-289.066 -310.679,-289.066" style="fill:#fff;fill-rule:nonzero;"/><path d="M1110.7,208.93l-94.275,94.292l-169.488,169.475l-237.188,0l0,-472.317l-157.441,0l-0,605.663l449.825,-0l0.017,-0.017l0.012,0.017l302.817,-302.821l169.487,-169.5l103.134,0l-0,-133.329l-158.363,-0l-208.537,208.537Z" style="fill:#fff;fill-rule:nonzero;"/></g></svg>